<?xml version="1.0" encoding="UTF-8"?>
<svg version="1.1" xmlns="http://www.w3.org/2000/svg" width="524" height="438">
<path d="M0 0 C172.92 0 345.84 0 524 0 C524 144.54 524 289.08 524 438 C351.08 438 178.16 438 0 438 C0 293.46 0 148.92 0 0 Z " fill="#000000" transform="translate(0,0)"/>
<path d="M0 0 C0.51014648 0.46245117 1.02029297 0.92490234 1.54589844 1.40136719 C19.02176141 17.3257902 30.63182973 38.06043516 36 61 C36.16371094 61.69254883 36.32742188 62.38509766 36.49609375 63.09863281 C43.54622948 94.37268532 38.64729198 128.65047796 22.14013672 156.21240234 C18.81235209 161.42996959 14.93433247 166.23130665 11 171 C10.57662354 171.52271484 10.15324707 172.04542969 9.71704102 172.58398438 C6.16649006 176.93110309 2.29084979 180.41543168 -2 184 C-2.71800781 184.6290625 -3.43601562 185.258125 -4.17578125 185.90625 C-29.10816593 207.02544644 -60.11338367 212.89848008 -92 211 C-121.75924181 208.26865757 -148.57145564 193.48579559 -168 171 C-179.66832462 156.39135055 -187.72942385 140.17477756 -192 122 C-192.24556641 120.97712891 -192.24556641 120.97712891 -192.49609375 119.93359375 C-199.97256853 87.37076557 -194.61905961 53.06012546 -177.12597656 24.7421875 C-174.41009549 20.53999163 -171.30549141 16.74579818 -168 13 C-167.29101562 12.17113281 -166.58203125 11.34226563 -165.8515625 10.48828125 C-147.18002978 -10.90208869 -122.4082794 -25.38666622 -94 -29 C-92.58460938 -29.18369141 -92.58460938 -29.18369141 -91.140625 -29.37109375 C-57.41249346 -32.83807174 -24.82832387 -23.12581023 0 0 Z " fill="#FDFDFD" transform="translate(306,109)"/>
<path d="M0 0 C1.50747803 -0.01522705 1.50747803 -0.01522705 3.04541016 -0.03076172 C16.34004887 0.1233979 30.3993558 4.36116663 40.29296875 13.62890625 C56.10059201 31.01353706 62.09067006 52.93841881 61.11669922 76.09082031 C59.67460869 94.97552632 51.92446983 113.47166976 38.1640625 126.62109375 C26.53192581 136.11046842 11.67692405 139.43557466 -3.0625 138.4375 C-20.26223335 136.12378711 -34.72050054 130.18466359 -46.0625 116.4375 C-57.72610719 100.05120523 -61.61143126 77.066638 -58.74169922 57.21875 C-55.33013954 38.38262949 -47.47088954 20.31736597 -31.6875 8.6875 C-29.20532104 7.09635964 -26.7077157 5.73836094 -24.0625 4.4375 C-23.25167969 4.02371094 -22.44085938 3.60992187 -21.60546875 3.18359375 C-14.54201006 0.21549325 -7.55273876 0.05426979 0 0 Z " fill="#020202" transform="translate(227.0625,130.5625)"/>
<path d="M0 0 C2.76009378 -0.0861113 5.11166526 0.2973436 7.81640625 0.86328125 C9.51796875 1.13011719 9.51796875 1.13011719 11.25390625 1.40234375 C21.22701062 3.18632578 29.02327475 6.15215901 35.81640625 13.86328125 C36.30882812 14.39953125 36.80125 14.93578125 37.30859375 15.48828125 C40.78275362 19.3599818 43.65706112 23.11272197 45.81640625 27.86328125 C45.3324461 33.26366196 43.42671704 38.22268788 41.6328125 43.296875 C36.67176143 57.65163223 38.31012569 71.70303467 42.81640625 85.86328125 C43.21085937 86.57097656 43.6053125 87.27867187 44.01171875 88.0078125 C45.1623364 90.66093572 44.6843406 92.13846814 43.81640625 94.86328125 C37.96486998 105.53885189 29.55709197 113.42271606 17.81640625 116.86328125 C13.06955389 118.13580604 8.37959095 117.97580801 3.50390625 117.92578125 C2.66794922 117.92126953 1.83199219 117.91675781 0.97070312 117.91210938 C-1.08076024 117.90038673 -3.13218648 117.88245328 -5.18359375 117.86328125 C-19.57563079 92.14496654 -24.43453491 61.68480857 -16.45825195 33.04370117 C-15.43894296 29.62263819 -14.33250724 26.24346881 -13.18359375 22.86328125 C-12.86390625 21.91839844 -12.54421875 20.97351563 -12.21484375 20 C-11.3100513 17.55472041 -10.29294802 15.22255864 -9.18359375 12.86328125 C-8.7040625 11.78433594 -8.22453125 10.70539063 -7.73046875 9.59375 C-3.6740821 1.45254409 -3.6740821 1.45254409 0 0 Z " fill="#FDFDFD" transform="translate(225.18359375,140.13671875)"/>
<path d="M0 0 C3.02870686 5.87996456 6.03542569 11.77078592 9.02709961 17.66967773 C10.04745328 19.67517809 11.07281832 21.67813694 12.10327148 23.6784668 C13.5834039 26.55384693 15.04528596 29.43787894 16.50390625 32.32421875 C16.9684169 33.21711105 17.43292755 34.11000336 17.91151428 35.029953 C18.54228127 36.29069389 18.54228127 36.29069389 19.18579102 37.5769043 C19.56107437 38.31192673 19.93635773 39.04694916 20.32301331 39.804245 C21.1898311 42.61570279 20.95164155 44.23076761 20 47 C17.50705447 48.7588266 15.26881516 50.09431071 12.5625 51.4375 C11.80332275 51.82437988 11.04414551 52.21125977 10.26196289 52.60986328 C-2.8650162 59.09455054 -16.55731745 62.8506072 -31 65 C-32.16789062 65.18304688 -33.33578125 65.36609375 -34.5390625 65.5546875 C-40.91177207 66.31839744 -47.33979171 66.28734574 -53.75 66.3125 C-54.43375702 66.31578308 -55.11751404 66.31906616 -55.82199097 66.32244873 C-69.74333399 66.34401738 -82.82539316 64.62047823 -96 60 C-93.54109438 57.22036756 -90.89907371 55.20024824 -87.8125 53.1875 C-72.18267566 42.9201032 -60.6632654 30.22160786 -50 15 C-48.44417446 13.44417446 -46.77757623 13.65508674 -44.6171875 13.421875 C-29.87521867 11.70856994 -16.48132299 9.53280607 -3.85546875 1.13671875 C-2 0 -2 0 0 0 Z " fill="#FCFCFC" transform="translate(386,256)"/>
<path d="M0 0 C0.7310495 -0.00590149 1.462099 -0.01180298 2.21530151 -0.0178833 C16.87037669 -0.09785922 30.86372973 1.95840394 44.875 6.375 C45.67679687 6.61412109 46.47859375 6.85324219 47.3046875 7.09960938 C52.86402687 8.80429353 58.11338835 10.96777996 63.375 13.4375 C63.375 14.0975 63.375 14.7575 63.375 15.4375 C64.07625 15.499375 64.7775 15.56125 65.5 15.625 C69.39124636 16.72470006 71.3299582 18.79312159 74.375 21.4375 C67.31579634 36.57739416 59.89051552 51.51999639 52.375 66.4375 C49.15070684 65.17176234 46.15574272 63.79844966 43.125 62.125 C33.97941434 57.53863805 23.99075238 54.55590219 13.78149414 53.89111328 C5.28312158 53.31841195 5.28312158 53.31841195 2.2890625 50.4140625 C0.77953141 47.81830798 -0.40915154 45.18105417 -1.625 42.4375 C-6.30007395 35.59846856 -12.00119081 29.49702774 -17.625 23.4375 C-18.16511719 22.83164063 -18.70523437 22.22578125 -19.26171875 21.6015625 C-24.89137409 15.56067289 -31.85979185 11.10089591 -38.625 6.4375 C-30.3233735 -1.8641265 -10.99958667 0.02490086 0 0 Z " fill="#FBFBFB" transform="translate(333.625,81.5625)"/>
</svg>
